Right_states
version=1
nRows=4
nColumns=140
inDegrees=yes

# SIMM Motion File Header:
name Right_states
datacolumns 140
datarows 4
otherdata 1
range 0.59776528 0.59986534
endheader
time	/jointset/sternoclavicular/sternoclavicular_r2/value	/jointset/sternoclavicular/sternoclavicular_r2/speed	/jointset/sternoclavicular/sternoclavicular_r3/value	/jointset/sternoclavicular/sternoclavicular_r3/speed	/jointset/unrotscap/unrotscap_r3/value	/jointset/unrotscap/unrotscap_r3/speed	/jointset/unrotscap/unrotscap_r2/value	/jointset/unrotscap/unrotscap_r2/speed	/jointset/acromioclavicular/acromioclavicular_r2/value	/jointset/acromioclavicular/acromioclavicular_r2/speed	/jointset/acromioclavicular/acromioclavicular_r3/value	/jointset/acromioclavicular/acromioclavicular_r3/speed	/jointset/acromioclavicular/acromioclavicular_r1/value	/jointset/acromioclavicular/acromioclavicular_r1/speed	/jointset/unrothum/unrothum_r1/value	/jointset/unrothum/unrothum_r1/speed	/jointset/unrothum/unrothum_r3/value	/jointset/unrothum/unrothum_r3/speed	/jointset/unrothum/unrothum_r2/value	/jointset/unrothum/unrothum_r2/speed	/jointset/shoulder0/elv_angle/value	/jointset/shoulder0/elv_angle/speed	/jointset/shoulder1/shoulder_elv/value	/jointset/shoulder1/shoulder_elv/speed	/jointset/shoulder1/shoulder1_r2/value	/jointset/shoulder1/shoulder1_r2/speed	/jointset/shoulder2/shoulder_rot/value	/jointset/shoulder2/shoulder_rot/speed	/jointset/elbow/elbow_flexion/value	/jointset/elbow/elbow_flexion/speed	/jointset/radioulnar/pro_sup/value	/jointset/radioulnar/pro_sup/speed	/jointset/radiocarpal/deviation/value	/jointset/radiocarpal/deviation/speed	/jointset/radiocarpal/flexion/value	/jointset/radiocarpal/flexion/speed	/jointset/wrist_hand/wrist_hand_r1/value	/jointset/wrist_hand/wrist_hand_r1/speed	/jointset/wrist_hand/wrist_hand_r3/value	/jointset/wrist_hand/wrist_hand_r3/speed	/forceset/DELT1/activation	/forceset/DELT1/fiber_length	/forceset/DELT2/activation	/forceset/DELT2/fiber_length	/forceset/DELT3/activation	/forceset/DELT3/fiber_length	/forceset/SUPSP/activation	/forceset/SUPSP/fiber_length	/forceset/INFSP/activation	/forceset/INFSP/fiber_length	/forceset/SUBSC/activation	/forceset/SUBSC/fiber_length	/forceset/TMIN/activation	/forceset/TMIN/fiber_length	/forceset/TMAJ/activation	/forceset/TMAJ/fiber_length	/forceset/PECM1/activation	/forceset/PECM2/activation	/forceset/PECM2/fiber_length	/forceset/PECM3/activation	/forceset/PECM3/fiber_length	/forceset/LAT1/activation	/forceset/LAT1/fiber_length	/forceset/LAT2/activation	/forceset/LAT2/fiber_length	/forceset/LAT3/activation	/forceset/LAT3/fiber_length	/forceset/CORB/activation	/forceset/CORB/fiber_length	/forceset/TRIlong/activation	/forceset/TRIlong/fiber_length	/forceset/TRIlat/activation	/forceset/TRIlat/fiber_length	/forceset/TRImed/activation	/forceset/TRImed/fiber_length	/forceset/ANC/activation	/forceset/ANC/fiber_length	/forceset/SUP/activation	/forceset/SUP/fiber_length	/forceset/BIClong/activation	/forceset/BIClong/fiber_length	/forceset/BICshort/activation	/forceset/BICshort/fiber_length	/forceset/BRA/activation	/forceset/BRA/fiber_length	/forceset/BRD/activation	/forceset/BRD/fiber_length	/forceset/ECRL/activation	/forceset/ECRL/fiber_length	/forceset/ECRB/activation	/forceset/ECRB/fiber_length	/forceset/ECU/activation	/forceset/ECU/fiber_length	/forceset/FCR/activation	/forceset/FCR/fiber_length	/forceset/FCU/activation	/forceset/FCU/fiber_length	/forceset/PL/activation	/forceset/PL/fiber_length	/forceset/PT/activation	/forceset/PT/fiber_length	/forceset/PQ/activation	/forceset/PQ/fiber_length	/forceset/FDSL/activation	/forceset/FDSL/fiber_length	/forceset/FDSR/activation	/forceset/FDSR/fiber_length	/forceset/FDSM/activation	/forceset/FDSM/fiber_length	/forceset/FDSI/activation	/forceset/FDSI/fiber_length	/forceset/FDPL/activation	/forceset/FDPL/fiber_length	/forceset/FDPR/activation	/forceset/FDPR/fiber_length	/forceset/FDPM/activation	/forceset/FDPM/fiber_length	/forceset/FDPI/activation	/forceset/FDPI/fiber_length	/forceset/EDCL/activation	/forceset/EDCL/fiber_length	/forceset/EDCR/activation	/forceset/EDCR/fiber_length	/forceset/EDCM/activation	/forceset/EDCM/fiber_length	/forceset/EDCI/activation	/forceset/EDCI/fiber_length	/forceset/EDM/activation	/forceset/EDM/fiber_length	/forceset/EIP/activation	/forceset/EIP/fiber_length	/forceset/EPL/activation	/forceset/EPL/fiber_length	/forceset/EPB/activation	/forceset/EPB/fiber_length	/forceset/FPL/activation	/forceset/FPL/fiber_length	/forceset/APL/activation	/forceset/APL/fiber_length
      0.59776528	    -11.86518025	    -12.54344001	      5.02553035	      5.31280917	     -5.02553035	     -5.31280917	     11.86518025	     12.54344001	     -2.40245764	     -2.53979145	     19.41581760	     20.52570111	      8.72727639	      9.22616138	     -8.72727639	     -9.22616138	    -19.41581760	    -20.52570111	      2.40245764	      2.53979145	    -29.03125938	     31.69275563	     49.02956056	     51.83228057	     29.03125938	    -31.69275563	    -29.57741056	     -6.72519522	    117.47336974	     -3.32723252	    -14.91507862	     -8.29710799	     -0.11865794	      0.00052291	     -0.09290113	      0.13314103	     -9.88695402	      0.04647650	     -2.66142145	      3.81420951	      0.02000000	      0.13968472	      0.24902081	      0.07310513	      0.21004919	      0.08802644	      0.02870740	      0.05465582	      0.04743676	      0.07171169	      0.02000000	      0.08118288	      0.03485273	      0.06187364	      0.06467825	      0.12587968	      0.02000000	      0.02000000	      0.13505923	      0.02000000	      0.11372449	      0.06219816	      0.17088700	      0.04023822	      0.13729285	      0.02000000	      0.20851504	      0.02000000	      0.09853128	      0.28756157	      0.17118948	      0.02000000	      0.11371232	      0.02000000	      0.10862406	      0.02000000	      0.02679074	      0.05094226	      0.03199701	      0.03457167	      0.09356689	      0.02000000	      0.12475591	      0.13606741	      0.05710554	      0.07873564	      0.09079290	      0.06922212	      0.04650027	      0.07252362	      0.05771634	      0.07266520	      0.07239086	      0.02000000	      0.04598328	      0.02000000	      0.03224330	      0.02000000	      0.04534885	      0.02000000	      0.03896834	      0.02000000	      0.02839522	      0.02000000	      0.03142531	      0.02000000	      0.05580213	      0.02000000	      0.07520443	      0.02000000	      0.08724477	      0.02000000	      0.07683777	      0.02000000	      0.08060417	      0.02000000	      0.07675140	      0.02000000	      0.07590079	      0.02000000	      0.07851917	      0.05337750	      0.06612343	      0.03810542	      0.07716821	      0.02000000	      0.06995834	      0.02455549	      0.07938349	      0.02000000	      0.06387873	      0.02000000	      0.06029206	      0.02000000	      0.06589612	      0.02000000	      0.06096637	      0.02000000	      0.06946325
      0.59874784	    -11.87751946	    -12.57299514	      5.03075665	      5.32532733	     -5.03075665	     -5.32532733	     11.87751946	     12.57299514	     -2.40495608	     -2.54577576	     19.43600910	     20.57406421	      8.73635233	      9.24790027	     -8.73635233	     -9.24790027	    -19.43600910	    -20.57406421	      2.40495608	      2.54577576	    -29.00010247	     31.72708044	     49.08054890	     51.95440892	     29.00010247	    -31.72708044	    -29.58411650	     -6.92531862	    117.47008098	     -3.36701012	    -14.92320792	     -8.25252223	     -0.11865747	      0.00046902	     -0.09277156	      0.13071910	     -9.88691162	      0.04168625	     -2.65770941	      3.74482647	      0.02000000	      0.13967622	      0.24902081	      0.07310033	      0.21004919	      0.08802516	      0.02870740	      0.05463990	      0.04743676	      0.07171075	      0.02000000	      0.08117887	      0.03485273	      0.06188449	      0.06467825	      0.12591246	      0.02000000	      0.02000000	      0.13508356	      0.02000000	      0.11376069	      0.06219816	      0.17090884	      0.04023822	      0.13732513	      0.02000000	      0.20855410	      0.02000000	      0.09856342	      0.28756157	      0.17120581	      0.02000000	      0.11371125	      0.02000000	      0.10862299	      0.02000000	      0.02679005	      0.05094226	      0.03199589	      0.03457167	      0.09356441	      0.02000000	      0.12478993	      0.13606741	      0.05710685	      0.07873564	      0.09079954	      0.06922212	      0.04650393	      0.07252362	      0.05771776	      0.07266520	      0.07239162	      0.02000000	      0.04598229	      0.02000000	      0.03224207	      0.02000000	      0.04534701	      0.02000000	      0.03897049	      0.02000000	      0.02839614	      0.02000000	      0.03142441	      0.02000000	      0.05580115	      0.02000000	      0.07520295	      0.02000000	      0.08724338	      0.02000000	      0.07683650	      0.02000000	      0.08060290	      0.02000000	      0.07675022	      0.02000000	      0.07589961	      0.02000000	      0.07852096	      0.05337750	      0.06612554	      0.03810542	      0.07717078	      0.02000000	      0.06996090	      0.02455549	      0.07938483	      0.02000000	      0.06388060	      0.02000000	      0.06029254	      0.02000000	      0.06589553	      0.02000000	      0.06096407	      0.02000000	      0.06946178
      0.59953038	    -11.88736747	    -12.59641618	      5.03492781	      5.33524738	     -5.03492781	     -5.33524738	     11.88736747	     12.59641618	     -2.40695010	     -2.55051805	     19.45212409	     20.61238968	      8.74359590	      9.26512730	     -8.74359590	     -9.26512730	    -19.45212409	    -20.61238968	      2.40695010	      2.55051805	    -28.97526420	     31.75422912	     49.12124308	     52.05118987	     28.97526420	    -31.75422912	    -29.58960043	     -7.09135759	    117.46743374	     -3.39879643	    -14.92965000	     -8.21138536	     -0.11865707	      0.00057543	     -0.09266978	      0.12952224	     -9.88687598	      0.05114459	     -2.65479351	      3.71053878	      0.02000000	      0.13966942	      0.24902081	      0.07309622	      0.21004919	      0.08802415	      0.02870740	      0.05462715	      0.04743676	      0.07170995	      0.02000000	      0.08117572	      0.03485273	      0.06189312	      0.06467825	      0.12593686	      0.02000000	      0.02000000	      0.13510297	      0.02000000	      0.11378958	      0.06219816	      0.17092631	      0.04023822	      0.13735093	      0.02000000	      0.20858532	      0.02000000	      0.09858907	      0.28756157	      0.17121885	      0.02000000	      0.11371039	      0.02000000	      0.10862213	      0.02000000	      0.02678950	      0.05094226	      0.03199500	      0.03457167	      0.09356243	      0.02000000	      0.12481711	      0.13606741	      0.05710791	      0.07873564	      0.09080486	      0.06922212	      0.04650683	      0.07252362	      0.05771888	      0.07266520	      0.07239222	      0.02000000	      0.04598153	      0.02000000	      0.03224112	      0.02000000	      0.04534558	      0.02000000	      0.03897219	      0.02000000	      0.02839687	      0.02000000	      0.03142371	      0.02000000	      0.05580040	      0.02000000	      0.07520180	      0.02000000	      0.08724230	      0.02000000	      0.07683550	      0.02000000	      0.08060190	      0.02000000	      0.07674929	      0.02000000	      0.07589868	      0.02000000	      0.07852237	      0.05337750	      0.06612722	      0.03810542	      0.07717280	      0.02000000	      0.06996293	      0.02455549	      0.07938589	      0.02000000	      0.06388205	      0.02000000	      0.06029291	      0.02000000	      0.06589507	      0.02000000	      0.06096227	      0.02000000	      0.06946063
      0.59986534	    -11.89158839	    -12.60641077	      5.03671559	      5.33948061	     -5.03671559	     -5.33948061	     11.89158839	     12.60641077	     -2.40780475	     -2.55254175	     19.45903107	     20.62874453	      8.74670054	      9.27247869	     -8.74670054	     -9.27247869	    -19.45903107	    -20.62874453	      2.40780475	      2.55254175	    -28.96462600	     31.76576435	     49.13868485	     52.09248973	     28.96462600	    -31.76576435	    -29.59198773	     -7.16322367	    117.46629301	     -3.41239446	    -14.93239783	     -8.19562730	     -0.11865686	      0.00064231	     -0.09262646	      0.12914050	     -9.88685791	      0.05708993	     -2.65355256	      3.69960267	      0.02000000	      0.13966650	      0.24902081	      0.07309439	      0.21004919	      0.08802372	      0.02870740	      0.05462168	      0.04743676	      0.07170959	      0.02000000	      0.08117438	      0.03485273	      0.06189681	      0.06467825	      0.12594795	      0.02000000	      0.02000000	      0.13511130	      0.02000000	      0.11380197	      0.06219816	      0.17093381	      0.04023822	      0.13736201	      0.02000000	      0.20859872	      0.02000000	      0.09860006	      0.28756157	      0.17122444	      0.02000000	      0.11371002	      0.02000000	      0.10862176	      0.02000000	      0.02678926	      0.05094226	      0.03199462	      0.03457167	      0.09356158	      0.02000000	      0.12482876	      0.13606741	      0.05710837	      0.07873564	      0.09080715	      0.06922212	      0.04650806	      0.07252362	      0.05771935	      0.07266520	      0.07239248	      0.02000000	      0.04598121	      0.02000000	      0.03224073	      0.02000000	      0.04534498	      0.02000000	      0.03897293	      0.02000000	      0.02839718	      0.02000000	      0.03142342	      0.02000000	      0.05580008	      0.02000000	      0.07520131	      0.02000000	      0.08724184	      0.02000000	      0.07683508	      0.02000000	      0.08060148	      0.02000000	      0.07674889	      0.02000000	      0.07589829	      0.02000000	      0.07852297	      0.05337750	      0.06612793	      0.03810542	      0.07717367	      0.02000000	      0.06996379	      0.02455549	      0.07938634	      0.02000000	      0.06388267	      0.02000000	      0.06029307	      0.02000000	      0.06589487	      0.02000000	      0.06096151	      0.02000000	      0.06946015
